<?xml version="1.0" encoding="utf-8"?>
<!-- Generator: Adobe Illustrator 26.0.3, SVG Export Plug-In . SVG Version: 6.00 Build 0)  -->
<svg version="1.1" id="Capa_1" xmlns="http://www.w3.org/2000/svg" xmlns:xlink="http://www.w3.org/1999/xlink" x="0px" y="0px"
	 width="512px" height="512px" viewBox="0 0 512 512" style="enable-background:new 0 0 512 512;" xml:space="preserve">
<style type="text/css">
	.st0{fill:#444444;}
</style>
<g>
	<path class="st0" d="M453.6,244.1l-185-185c-7.8-7.8-18.4-12.2-29.5-12.2H88.7c-23.1,0-41.9,18.9-41.9,41.9v150.3
		c0,11.1,4.4,21.8,12.4,29.5l185,185c16.3,16.3,43,16.3,59.3,0l150.3-150.3C470.1,287.1,470.1,260.6,453.6,244.1z M141.1,172.6
		c-17.4,0-31.4-14-31.4-31.4s14-31.4,31.4-31.4s31.4,14,31.4,31.4S158.5,172.6,141.1,172.6z"/>
</g>
</svg>
