<?xml version="1.0" encoding="utf-8"?>
<!-- Generator: Adobe Illustrator 26.0.3, SVG Export Plug-In . SVG Version: 6.00 Build 0)  -->
<svg version="1.1" id="Capa_1" xmlns="http://www.w3.org/2000/svg" xmlns:xlink="http://www.w3.org/1999/xlink" x="0px" y="0px"
	 width="512px" height="512px" viewBox="0 0 512 512" style="enable-background:new 0 0 512 512;" xml:space="preserve">
<style type="text/css">
	.st0{fill:#444444;}
</style>
<path class="st0" d="M256.5,32C132.6,32,32,132.6,32,256.5S132.6,481,256.5,481S481,380.4,481,256.5S380.4,32,256.5,32z
	 M234.1,434.5c-88.7-11-157.1-86.4-157.1-178c0-13.9,1.8-27.2,4.7-40.2l107.5,107.5v22.4c0,24.7,20.2,44.9,44.9,44.9V434.5z
	 M389,377.5c-5.8-18.2-22.4-31.2-42.7-31.2h-22.4v-67.4c0-12.3-10.1-22.5-22.5-22.5H166.7v-44.9h44.9c12.3,0,22.4-10.1,22.4-22.4
	v-44.9H279c24.7,0,44.9-20.2,44.9-44.9v-9.2c65.8,26.7,112.2,91.1,112.2,166.4C436.1,303.2,418.1,345.6,389,377.5z"/>
</svg>
