<?xml version="1.0" encoding="utf-8"?>
<!-- Generator: Adobe Illustrator 26.0.3, SVG Export Plug-In . SVG Version: 6.00 Build 0)  -->
<svg version="1.1" id="Capa_1" xmlns="http://www.w3.org/2000/svg" xmlns:xlink="http://www.w3.org/1999/xlink" x="0px" y="0px"
	 width="150px" height="150px" viewBox="0 0 150 150" style="enable-background:new 0 0 150 150;" xml:space="preserve">
<style type="text/css">
	.st0{fill:url(#SVGID_1_);}
	.st1{fill:url(#SVGID_00000044886972295800583200000016811618522826453168_);}
	.st2{fill:url(#SVGID_00000043443633859053280080000001092738207126945936_);}
	.st3{fill:url(#SVGID_00000088851950865400434040000018363010914072161686_);}
	.st4{fill:url(#SVGID_00000067194599701905808400000006243445669685256326_);}
	.st5{fill:url(#SVGID_00000145780807008088462990000010558226477942064032_);}
	.st6{fill:url(#SVGID_00000029766839442079349960000009650963667222903955_);}
	.st7{fill:url(#SVGID_00000183218928523129968170000007658208217236174493_);}
	.st8{fill:url(#SVGID_00000106135216062322054440000012521002547498239908_);}
	.st9{fill:url(#SVGID_00000016071698439760221300000002448924436905054614_);}
</style>
<g>
	
		<linearGradient id="SVGID_1_" gradientUnits="userSpaceOnUse" x1="8.3871" y1="109.1419" x2="102.1445" y2="109.1419" gradientTransform="matrix(1 0 0 -1 0 150)">
		<stop  offset="0" style="stop-color:#FF5652"/>
		<stop  offset="1" style="stop-color:#8F0C2B"/>
	</linearGradient>
	<path class="st0" d="M137.4,18.3h-8.6v4.3h6.5v36.6h-15.1v4.3h17.2c1.2,0,2.2-1,2.2-2.2V20.5C139.6,19.3,138.6,18.3,137.4,18.3
		L137.4,18.3z"/>
	
		<linearGradient id="SVGID_00000170972166379858392180000011644970615168092330_" gradientUnits="userSpaceOnUse" x1="8.3871" y1="109.1419" x2="102.1445" y2="109.1419" gradientTransform="matrix(1 0 0 -1 0 150)">
		<stop  offset="0" style="stop-color:#FF5652"/>
		<stop  offset="1" style="stop-color:#8F0C2B"/>
	</linearGradient>
	<path style="fill:url(#SVGID_00000170972166379858392180000011644970615168092330_);" d="M14.7,22.6h6.5v-4.3h-8.6
		c-1.2,0-2.2,1-2.2,2.2v40.8c0,1.2,1,2.2,2.2,2.2h17.2v-4.3H14.7V22.6z"/>
	
		<linearGradient id="SVGID_00000062165752147628074850000000924902362076870294_" gradientUnits="userSpaceOnUse" x1="8.3871" y1="62.4419" x2="102.1445" y2="62.4419" gradientTransform="matrix(1 0 0 -1 0 150)">
		<stop  offset="0" style="stop-color:#FF5652"/>
		<stop  offset="1" style="stop-color:#8F0C2B"/>
	</linearGradient>
	<path style="fill:url(#SVGID_00000062165752147628074850000000924902362076870294_);" d="M87.2,85.2l-16.5,16.5l5.6,5.6l16.5-16.5
		c2.9,4,4.4,8.8,4.4,13.7h7.9c0-7-2.3-13.9-6.7-19.4l11.4-11.6l-5.6-5.6L92.9,79.5c-9.5-7.4-22.5-8.8-33.3-3.5
		c-10.9,5.3-17.7,16.4-17.7,28.4h7.9c0-8.9,4.9-17,12.8-21.1C70.4,79.4,79.9,80,87.2,85.2L87.2,85.2z"/>
	<g>
		
			<linearGradient id="SVGID_00000076581781603672083700000011686037745920821901_" gradientUnits="userSpaceOnUse" x1="8.3871" y1="109.1419" x2="102.1445" y2="109.1419" gradientTransform="matrix(1 0 0 -1 0 150)">
			<stop  offset="0" style="stop-color:#FF5652"/>
			<stop  offset="1" style="stop-color:#8F0C2B"/>
		</linearGradient>
		<path style="fill:url(#SVGID_00000076581781603672083700000011686037745920821901_);" d="M72.2,57.7c0,1.5,1.3,2.8,2.8,2.8
			s2.8-1.3,2.8-2.8V24.1c0-1.5-1.3-2.8-2.8-2.8s-2.8,1.3-2.8,2.8V57.7z"/>
		
			<linearGradient id="SVGID_00000065076264409775781350000002508197740588453258_" gradientUnits="userSpaceOnUse" x1="8.3871" y1="109.1419" x2="102.1445" y2="109.1419" gradientTransform="matrix(1 0 0 -1 0 150)">
			<stop  offset="0" style="stop-color:#FF5652"/>
			<stop  offset="1" style="stop-color:#8F0C2B"/>
		</linearGradient>
		<path style="fill:url(#SVGID_00000065076264409775781350000002508197740588453258_);" d="M44.2,24.1c-1.5,0-2.8,1.3-2.8,2.8v28
			c0,1.5,1.3,2.8,2.8,2.8s2.8-1.3,2.8-2.8v-28C47,25.4,45.8,24.1,44.2,24.1L44.2,24.1z"/>
		
			<linearGradient id="SVGID_00000083077593798795759540000012684899199371690383_" gradientUnits="userSpaceOnUse" x1="8.3871" y1="109.1419" x2="102.1445" y2="109.1419" gradientTransform="matrix(1 0 0 -1 0 150)">
			<stop  offset="0" style="stop-color:#FF5652"/>
			<stop  offset="1" style="stop-color:#8F0C2B"/>
		</linearGradient>
		<path style="fill:url(#SVGID_00000083077593798795759540000012684899199371690383_);" d="M68,52.1V29.7c0-1.5-1.3-2.8-2.8-2.8
			s-2.8,1.3-2.8,2.8v22.4c0,1.5,1.3,2.8,2.8,2.8S68,53.6,68,52.1L68,52.1z"/>
		
			<linearGradient id="SVGID_00000103976336506680566900000000928250434562284947_" gradientUnits="userSpaceOnUse" x1="8.3871" y1="109.1419" x2="102.1445" y2="109.1419" gradientTransform="matrix(1 0 0 -1 0 150)">
			<stop  offset="0" style="stop-color:#FF5652"/>
			<stop  offset="1" style="stop-color:#8F0C2B"/>
		</linearGradient>
		<path style="fill:url(#SVGID_00000103976336506680566900000000928250434562284947_);" d="M55.4,49.3c1.5,0,2.8-1.3,2.8-2.8V35.3
			c0-1.5-1.3-2.8-2.8-2.8s-2.8,1.3-2.8,2.8v11.2C52.6,48,53.9,49.3,55.4,49.3L55.4,49.3z"/>
		
			<linearGradient id="SVGID_00000125571393513396210270000011768780209245808273_" gradientUnits="userSpaceOnUse" x1="8.3871" y1="109.1419" x2="102.1445" y2="109.1419" gradientTransform="matrix(1 0 0 -1 0 150)">
			<stop  offset="0" style="stop-color:#FF5652"/>
			<stop  offset="1" style="stop-color:#8F0C2B"/>
		</linearGradient>
		<path style="fill:url(#SVGID_00000125571393513396210270000011768780209245808273_);" d="M87.6,52.1V29.7c0-1.5-1.3-2.8-2.8-2.8
			S82,28.2,82,29.7v22.4c0,1.5,1.3,2.8,2.8,2.8C86.3,54.9,87.6,53.6,87.6,52.1L87.6,52.1z"/>
		
			<linearGradient id="SVGID_00000083803167802386396940000008101193059908608137_" gradientUnits="userSpaceOnUse" x1="8.3871" y1="109.1419" x2="102.1445" y2="109.1419" gradientTransform="matrix(1 0 0 -1 0 150)">
			<stop  offset="0" style="stop-color:#FF5652"/>
			<stop  offset="1" style="stop-color:#8F0C2B"/>
		</linearGradient>
		<path style="fill:url(#SVGID_00000083803167802386396940000008101193059908608137_);" d="M105.8,24.1c-1.5,0-2.8,1.3-2.8,2.8v28
			c0,1.5,1.3,2.8,2.8,2.8s2.8-1.3,2.8-2.8v-28C108.6,25.4,107.3,24.1,105.8,24.1L105.8,24.1z"/>
		
			<linearGradient id="SVGID_00000056385991511090792600000007805423704786010755_" gradientUnits="userSpaceOnUse" x1="8.3871" y1="109.1419" x2="102.1445" y2="109.1419" gradientTransform="matrix(1 0 0 -1 0 150)">
			<stop  offset="0" style="stop-color:#FF5652"/>
			<stop  offset="1" style="stop-color:#8F0C2B"/>
		</linearGradient>
		<path style="fill:url(#SVGID_00000056385991511090792600000007805423704786010755_);" d="M94.6,32.5c-1.5,0-2.8,1.3-2.8,2.8v11.2
			c0,1.5,1.3,2.8,2.8,2.8s2.8-1.3,2.8-2.8V35.3C97.4,33.8,96.1,32.5,94.6,32.5L94.6,32.5z"/>
	</g>
</g>
</svg>
