<?xml version="1.0" encoding="utf-8"?>
<!-- Generator: Adobe Illustrator 26.0.3, SVG Export Plug-In . SVG Version: 6.00 Build 0)  -->
<svg version="1.1" id="Capa_1" xmlns="http://www.w3.org/2000/svg" xmlns:xlink="http://www.w3.org/1999/xlink" x="0px" y="0px"
	 width="370px" height="400px" viewBox="0 0 370 400" style="enable-background:new 0 0 370 400;" xml:space="preserve">
<style type="text/css">
	.st0{fill:url(#SVGID_1_);}
</style>
<linearGradient id="SVGID_1_" gradientUnits="userSpaceOnUse" x1="39.7097" y1="200" x2="330.2903" y2="200">
	<stop  offset="0" style="stop-color:#FF5652"/>
	<stop  offset="1" style="stop-color:#8F0C2B"/>
</linearGradient>
<path class="st0" d="M284.9,269.5c5.7-9.9,9.9-21.3,9.9-34c0-35.4-28.3-63.8-63.8-63.8s-63.8,28.3-63.8,63.8s28.3,63.8,63.8,63.8
	c12.8,0,24.1-4.3,34-9.9l45.4,45.4l19.8-19.8L284.9,269.5z M231.1,270.9c-19.8,0-35.4-15.6-35.4-35.4s15.6-35.4,35.4-35.4
	s35.4,15.6,35.4,35.4S250.9,270.9,231.1,270.9z M181.5,313.4v28.3c-78.2,0-141.7-63.5-141.7-141.7S103.2,58.3,181.5,58.3
	c68.6,0,125.7,48.8,138.9,113.4H291c-9.1-34.9-34-63.4-67-76.7v5.8c0,15.6-12.8,28.3-28.3,28.3h-28.3v28.3c0,7.8-6.4,14.2-14.2,14.2
	h-28.3V200h28.3v42.5h-14.2L71,174.6c-1.8,8.2-3,16.6-3,25.4C68.1,262.5,118.9,313.4,181.5,313.4z"/>
</svg>
