<?xml version="1.0" encoding="utf-8"?>
<!-- Generator: Adobe Illustrator 26.0.3, SVG Export Plug-In . SVG Version: 6.00 Build 0)  -->
<svg version="1.1" id="Capa_1" xmlns="http://www.w3.org/2000/svg" xmlns:xlink="http://www.w3.org/1999/xlink" x="0px" y="0px"
	 width="150px" height="150px" viewBox="0 0 150 150" style="enable-background:new 0 0 150 150;" xml:space="preserve">
<style type="text/css">
	.st0{fill:url(#SVGID_1_);}
</style>
<linearGradient id="SVGID_1_" gradientUnits="userSpaceOnUse" x1="25.9988" y1="75.2599" x2="123.9186" y2="75.2599">
	<stop  offset="0" style="stop-color:#FF5652"/>
	<stop  offset="1" style="stop-color:#8F0C2B"/>
</linearGradient>
<path class="st0" d="M111.7,53.8h-6.1V41.6C105.6,24.7,91.8,11,75,11S44.4,24.7,44.4,41.6v12.2h-6.1c-6.7,0-12.2,5.5-12.2,12.2v61.2
	c0,6.7,5.5,12.2,12.2,12.2h73.4c6.7,0,12.2-5.5,12.2-12.2V66.1C123.9,59.3,118.4,53.8,111.7,53.8z M75,108.9
	c-6.7,0-12.2-5.5-12.2-12.2S68.2,84.4,75,84.4c6.7,0,12.2,5.5,12.2,12.2S81.7,108.9,75,108.9z M93.9,53.8H56V41.6
	c0-10.5,8.5-19,19-19s19,8.5,19,19V53.8z"/>
</svg>
