<?xml version="1.0" encoding="UTF-8"?>
<svg width="1089px" height="243px" viewBox="0 0 1089 243" version="1.1" xmlns="http://www.w3.org/2000/svg" xmlns:xlink="http://www.w3.org/1999/xlink">
    <!-- Generator: Sketch 53 (72520) - https://sketchapp.com -->
    <title>Slice 1</title>
    <desc>Created with Sketch.</desc>
    <defs>
        <linearGradient x1="37.0867138%" y1="60.3092046%" x2="46.1156069%" y2="50.1969994%" id="linearGradient-1">
            <stop stop-color="#000000" offset="0%"></stop>
            <stop stop-color="#FFFFFF" offset="100%"></stop>
        </linearGradient>
        <linearGradient x1="63.5471156%" y1="58.9533837%" x2="41.1130192%" y2="49.3329984%" id="linearGradient-2">
            <stop stop-color="#000000" offset="0%"></stop>
            <stop stop-color="#FFFFFF" offset="100%"></stop>
        </linearGradient>
        <linearGradient x1="52.4164642%" y1="33.6956284%" x2="50.0264304%" y2="51.7856973%" id="linearGradient-3">
            <stop stop-color="#000000" offset="0%"></stop>
            <stop stop-color="#FFFFFF" offset="100%"></stop>
        </linearGradient>
    </defs>
    <g id="Page-1" stroke="none" stroke-width="1" fill="none" fill-rule="evenodd">
        <g id="Isotype">
            <path d="M41.35,30.8092527 L41.65,30.6592527 C41.5571928,30.722503 41.4562846,30.7729571 41.35,30.8092527 L41.35,30.8092527 Z" id="Path"></path>
            <path d="M25.86,173.299253 L25.86,131.569253 L25.38,40.2992527 L1.65,54.0292527 C0.634288644,54.6250636 0.00737696277,55.7117105 0,56.8892527 L0.06,160.039253 L0.06,160.189253 C0.0367251218,161.382735 0.675609395,162.491161 1.72,163.069253 L28.19,178.299253 C25.5,176.779253 25.86,175.079253 25.86,173.299253 Z" id="Path" fill="#F16423" fill-rule="nonzero"></path>
            <path d="M25.38,40.2992527 L25.86,131.569253 C25.74,105.829253 25.47,51.3492527 25.38,40.2992527 Z" id="Path" fill="#2276A0" fill-rule="nonzero"></path>
            <path d="M47.65,185.709253 L91.25,110.139253 C91.8194835,109.109404 91.8194835,107.859102 91.25,106.829253 L47.56,31.2992527 L47.56,31.2992527 C46.6770164,29.7570853 44.7289609,29.1948057 43.16,30.0292527 L42.08,30.6492527 C42.08,30.6492527 23.82,41.9692527 38.08,66.6492527 L61.28,106.809253 C61.8803657,107.823752 61.8803657,109.084753 61.28,110.099253 L38.17,150.229253 C37.2587066,151.813467 35.238393,152.363242 33.65,151.459253 L27.53,147.949253 C26.4967452,147.353164 25.8487333,146.261776 25.82,145.069253 L25.82,173.299253 C25.82,175.079253 25.46,176.779253 28.13,178.299253 L43.13,186.929253 C43.8905172,187.369714 44.7953149,187.488615 45.6438096,187.259597 C46.4923043,187.030578 47.2143942,186.472561 47.65,185.709253 Z" id="Path" fill="#F16423" fill-rule="nonzero"></path>
            <path d="M47.65,185.709253 L91.25,110.139253 C91.8194835,109.109404 91.8194835,107.859102 91.25,106.829253 L47.56,31.2992527 L47.56,31.2992527 C46.6770164,29.7570853 44.7289609,29.1948057 43.16,30.0292527 L42.08,30.6492527 C42.08,30.6492527 23.82,41.9692527 38.08,66.6492527 L61.28,106.809253 C61.8803657,107.823752 61.8803657,109.084753 61.28,110.099253 L38.17,150.229253 C37.2587066,151.813467 35.238393,152.363242 33.65,151.459253 L27.53,147.949253 C26.4967452,147.353164 25.8487333,146.261776 25.82,145.069253 L25.82,173.299253 C25.82,175.079253 25.46,176.779253 28.13,178.299253 L43.13,186.929253 C43.8905172,187.369714 44.7953149,187.488615 45.6438096,187.259597 C46.4923043,187.030578 47.2143942,186.472561 47.65,185.709253 Z" id="Path" fill="url(#linearGradient-1)" fill-rule="nonzero" opacity="0.5" style="mix-blend-mode: multiply;"></path>
            <path d="M186.15,136.659253 L149.9,157.359253 L70.9,203.039253 L94.65,216.809253 C95.6737127,217.388618 96.9262873,217.388618 97.95,216.809253 L187.44,165.659253 L187.58,165.579253 C188.087897,165.296143 188.50689,164.877149 188.79,164.369253 C189.088038,163.866592 189.246814,163.293619 189.25,162.709253 L189.35,132.169253 C189.34,135.179253 187.65,135.719253 186.15,136.659253 Z" id="Path" fill="#2276A0" fill-rule="nonzero"></path>
            <path d="M70.89,202.989253 L149.89,157.309253 C127.65,170.189253 80.44,197.429253 70.89,202.989253 Z" id="Path" fill="#2276A0" fill-rule="nonzero"></path>
            <path d="M186.13,111.539253 L98.86,111.179253 C97.6882249,111.169033 96.6022486,111.792322 96.02,112.809253 L52.07,188.189253 L52.07,188.189253 C51.1811518,189.728048 51.6615929,191.69389 53.16,192.649253 L54.23,193.279253 C54.23,193.279253 73.12,203.539253 87.5,178.869253 L110.85,138.779253 C111.447266,137.765008 112.532999,137.138623 113.71,137.129253 L160.01,137.329253 C160.884213,137.326542 161.723111,137.673996 162.339394,138.294037 C162.955677,138.914078 163.298025,139.755072 163.29,140.629253 L163.29,147.689253 C163.313685,148.901271 162.688375,150.033692 161.65,150.659253 L186.18,136.659253 C187.72,135.769253 189.37,135.229253 189.38,132.169253 L189.44,114.889253 C189.456185,114.002862 189.113961,113.147452 188.49086,112.516821 C187.867759,111.88619 187.016521,111.533716 186.13,111.539253 Z" id="Path" fill="#2276A0" fill-rule="nonzero"></path>
            <path d="M73.88,16.2292527 C75.4,17.1292527 110,37.1492527 110,37.1492527 L189.230109,82.4492527 L189.23,55.0092527 C189.239383,53.8452978 188.640323,52.7609228 187.65,52.1492527 L98.35,0.51925272 L98.22,0.44925272 C97.190812,-0.149750907 95.919188,-0.149750907 94.89,0.44925272 L68.4,15.7392527 C71.04,14.1992527 72.34,15.3592527 73.88,16.2292527 Z" id="Path" fill="#2276A0" fill-rule="nonzero"></path>
            <path d="M189.23,82.4492527 L110,37.1492527 C132.33,49.9392527 179.65,76.9792527 189.23,82.4492527 Z" id="Path" fill="#2276A0" fill-rule="nonzero"></path>
            <path d="M52.22,28.8692527 L95.8,104.459253 C96.3972656,105.473498 97.4829992,106.099882 98.66,106.109253 L185.91,106.159253 L185.91,106.159253 C187.696081,106.165822 189.165259,104.754172 189.23,102.969253 L189.23,101.739253 C189.23,101.739253 188.59,80.2592527 160.03,80.2392527 L113.63,80.2392527 C112.448945,80.2448774 111.357802,79.6093344 110.78,78.5792527 L87.65,38.4492527 C86.7453333,36.8751007 87.2868519,34.865664 88.86,33.9592527 L94.97,30.4292527 C96.0102203,29.8449064 97.2797797,29.8449064 98.32,30.4292527 C98.32,30.4292527 75.4,17.1692527 73.88,16.2692527 C72.36,15.3692527 71.04,14.2692527 68.4,15.7792527 L53.4,24.4192527 C51.8614956,25.3345181 51.3371507,27.3119205 52.22,28.8692527 Z" id="Path" fill="#2276A0" fill-rule="nonzero"></path>
            <path d="M186.13,111.539253 L98.86,111.179253 C97.6882249,111.169033 96.6022486,111.792322 96.02,112.809253 L52.07,188.189253 L52.07,188.189253 C51.1811518,189.728048 51.6615929,191.69389 53.16,192.649253 L54.23,193.279253 C54.23,193.279253 73.12,203.539253 87.5,178.869253 L110.85,138.779253 C111.447266,137.765008 112.532999,137.138623 113.71,137.129253 L160.01,137.329253 C160.884213,137.326542 161.723111,137.673996 162.339394,138.294037 C162.955677,138.914078 163.298025,139.755072 163.29,140.629253 L163.29,147.689253 C163.313685,148.901271 162.688375,150.033692 161.65,150.659253 L186.18,136.659253 C187.72,135.769253 189.37,135.229253 189.38,132.169253 L189.44,114.889253 C189.456185,114.002862 189.113961,113.147452 188.49086,112.516821 C187.867759,111.88619 187.016521,111.533716 186.13,111.539253 Z" id="Path" fill="url(#linearGradient-2)" fill-rule="nonzero" opacity="0.5" style="mix-blend-mode: multiply;"></path>
            <path d="M52.22,28.8692527 L95.8,104.459253 C96.3972656,105.473498 97.4829992,106.099882 98.66,106.109253 L185.91,106.159253 L185.91,106.159253 C187.696081,106.165822 189.165259,104.754172 189.23,102.969253 L189.23,101.739253 C189.23,101.739253 188.59,80.2592527 160.03,80.2392527 L113.63,80.2392527 C112.448945,80.2448774 111.357802,79.6093344 110.78,78.5792527 L87.65,38.4492527 C86.7453333,36.8751007 87.2868519,34.865664 88.86,33.9592527 L94.97,30.4292527 C96.0102203,29.8449064 97.2797797,29.8449064 98.32,30.4292527 C98.32,30.4292527 75.4,17.1692527 73.88,16.2692527 C72.36,15.3692527 71.04,14.2692527 68.4,15.7792527 L53.4,24.4192527 C51.8614956,25.3345181 51.3371507,27.3119205 52.22,28.8692527 Z" id="Path" fill="url(#linearGradient-3)" fill-rule="nonzero" opacity="0.5" style="mix-blend-mode: multiply;"></path>
        </g>
        <g id="Name" transform="translate(226.000000, 55.000000)" fill-rule="nonzero">
            <path d="M0,1.52 L47.31,1.52 C77.16,1.52 84.01,27.14 84.01,55.21 C84.01,89.13 72.5,108.05 47.31,108.05 L0,108.05 L0,1.52 Z M45.14,87.41 C56.2,87.41 60.14,76.06 60.14,55.11 C60.14,27.61 54.47,22.22 45.14,22.22 L23.89,22.22 L23.89,87.41 L45.14,87.41 Z" id="Shape" fill="#F26524"></path>
            <path d="M96.67,1.52 L120.54,1.52 L120.54,61.47 C120.54,81.12 123.6,87.09 138.31,87.09 C151.55,87.09 155.19,80.39 155.19,61.47 L155.19,1.52 L179.19,1.52 L179.19,61.47 C179.19,108.47 155.89,108.78 138.29,108.78 C118.47,108.78 96.65,109.94 96.65,61.47 L96.67,1.52 Z" id="Path" fill="#F26524"></path>
            <polygon id="Path" fill="#F26524" points="215.74 1.52 233.66 34.85 251.84 1.52 278.34 1.52 246.03 54.92 277.47 108.05 251.12 108.05 233.66 75.44 216.03 108.05 189.68 108.05 221.28 54.92 189.24 1.52"></polygon>
            <path d="M350.09,0.04 C362.583891,0.0634792436 375.032034,1.5502755 387.18,4.47 L387.18,17.92 C387.02,17.92 367.37,16.14 353.18,16.14 C336.77,16.14 330.72,21.47 330.72,55.28 C330.72,79.51 335.16,94.14 353.18,94.14 C368.71,94.14 387.18,92.97 387.18,92.97 L387.18,106.41 C377.27,109.07 362.64,110.41 350.09,110.25 C322.74,110.1 313.57,88.39 313.57,55 C313.57,20.43 320.67,0 350.09,0" id="Path" fill="#1F76A1"></path>
            <path d="M434.76,1.22 L453.68,1.22 L489.89,109.41 L471.09,109.41 L462.83,83.26 L424.56,83.26 L416.14,109.41 L397.09,109.41 L434.76,1.22 Z M458.41,67.55 L444.2,24.55 L429.45,67.55 L458.41,67.55 Z" id="Shape" fill="#1F76A1"></path>
            <path d="M500.5,1.22 L546.32,1.22 C559.17,1.22 574.84,5.65 574.84,33.87 C574.84,66.08 558.13,68.29 546.32,68 C540.4,67.69 518.39,65.34 517.65,65 L517.65,109.41 L500.5,109.41 L500.5,1.22 Z M545.29,52.33 C552.23,52.33 557.56,49.38 557.56,34.02 C557.56,18.66 550.45,16.88 545.29,16.88 L517.65,16.88 L517.65,52.33 L545.29,52.33 Z" id="Shape" fill="#1F76A1"></path>
            <rect id="Rectangle" fill="#1F76A1" x="590.36" y="1.22" width="17.14" height="108.14"></rect>
            <polygon id="Path" fill="#1F76A1" points="620.21 1.22 698.38 1.22 698.38 17.32 667.5 17.32 667.5 109.36 650.35 109.36 650.35 17.32 620.21 17.32"></polygon>
            <path d="M728.09,1.22 L747,1.22 L783.21,109.41 L764.44,109.41 L756.17,83.26 L717.89,83.26 L709.47,109.41 L690.41,109.41 L728.09,1.22 Z M751.73,67.55 L737.55,24.55 L722.76,67.55 L751.73,67.55 Z" id="Shape" fill="#1F76A1"></path>
            <path d="M795.92,1.22 L813.09,1.22 L813.09,85.58 C813.09,93.4 817.96,93.26 822.25,93.26 L862.25,93.26 L862.25,109.41 L817.5,109.41 C806.56,109.41 795.92,105.87 795.92,89.32 L795.92,1.22 Z" id="Path" fill="#1F76A1"></path>
        </g>
    </g>
</svg>