<?xml version="1.0" encoding="utf-8"?>
<!-- Generator: Adobe Illustrator 26.0.3, SVG Export Plug-In . SVG Version: 6.00 Build 0)  -->
<svg version="1.1" id="Capa_1" xmlns="http://www.w3.org/2000/svg" xmlns:xlink="http://www.w3.org/1999/xlink" x="0px" y="0px"
	 width="123px" height="24px" viewBox="0 0 123 24" style="enable-background:new 0 0 123 24;" xml:space="preserve">
<style type="text/css">
	.st0{fill:#8F0C2B;}
</style>
<g id="g3876">
	<g id="g3882">
		<path id="path3884" class="st0" d="M29.7,23c-0.3,0.1-0.7,0.1-1.1,0.2s-0.8,0.1-1.2,0.1c-1.1,0-2.1-0.2-2.9-0.5s-1.6-0.8-2.3-1.4
			c-0.7-0.6-1.2-1.1-1.5-1.4c-0.3-0.4-0.7-0.8-0.9-1.3c-0.3-0.5-0.5-1.1-0.7-1.7C19,16.3,19,15.6,19,14.8c0-1.3,0.1-2.4,0.4-3.4
			c0.3-0.9,0.8-1.9,1.5-2.9s1.7-1.8,3-2.4c1.2-0.6,2.6-1,4-1c2.5,0,4.5,0.9,6.3,2.6c1.7,1.7,2.6,3.8,2.6,6.3v8.6H33v-8.8
			c0-1.3-0.5-2.5-1.5-3.4c-1-1-2.2-1.5-3.6-1.5s-2.7,0.5-3.6,1.5c-1,1-1.5,2.2-1.5,3.7s0.5,2.7,1.5,3.7s2.3,1.6,3.7,1.6
			c1.5,0,2.8-0.6,3.8-1.8v4.6c-0.4,0.2-0.7,0.3-1.1,0.5C30.4,22.9,30.1,23,29.7,23"/>
	</g>
	<g id="g3886">
		<path id="path3888" class="st0" d="M45.1,22.6c-2.1,0-3.8-0.6-5-1.7s-1.8-2.7-1.8-4.6V0.7H42v4.8h2.5V9H42v7.1
			c0,0.7,0.3,1.4,0.9,2c0.5,0.5,1.3,0.9,2.1,0.8h0.6v3.6L45.1,22.6z"/>
	</g>
	<g id="g3890">
		<path id="path3892" class="st0" d="M50.8,15.7c-0.1,0-0.2-0.1-0.3-0.1c-0.1-0.1-0.2-0.2-0.3-0.4c-0.1-0.3-0.2-0.7-0.2-1
			s0.1-0.7,0.2-1c0.1-0.3,0.3-0.4,0.5-0.4h8.7c-0.8-2.6-2.4-3.9-4.9-3.9c-1.5,0-2.7,0.5-3.7,1.5s-1.5,2.3-1.5,3.7
			c0,1.5,0.5,2.7,1.5,3.7s2.2,1.5,3.7,1.5c0.6,0,1.2-0.1,1.7-0.3c0.5-0.2,0.9-0.4,1-0.5c0.2-0.1,0.5-0.4,0.9-0.9l2.5,2.7
			c-0.9,0.9-1.8,1.6-2.8,2s-2.1,0.6-3.4,0.6c-2.6,0-4.7-0.9-6.5-2.6c-1.7-1.7-2.6-3.8-2.6-6.3s0.8-4.6,2.5-6.3s3.8-2.6,6.2-2.6
			c2.5,0,4.6,0.9,6.4,2.7c1.8,1.8,2.7,3.9,2.7,6.3L63,15.6L50.8,15.7z"/>
	</g>
	<g id="g3894">
		<path id="path3896" class="st0" d="M67.7,5.5l3,5.2l3.1-5.2h4.4l-5.1,8.3l5,8.8h-4.3l-3-5.8l-3,5.8h-4.4l5-8.8l-5-8.3L67.7,5.5z"
			/>
	</g>
	<g id="g3898">
		<path id="path3900" class="st0" d="M85.4,22.6c-2.1,0-3.8-0.6-5-1.7s-1.8-2.7-1.8-4.6V0.7h3.7v4.8h2.5V9h-2.5v7.1
			c0,0.7,0.3,1.4,0.9,2c0.5,0.5,1.3,0.9,2.1,0.8H86v3.6L85.4,22.6z"/>
	</g>
	<g id="g3902">
		<path id="path3904" class="st0" d="M95,19.2c1.5,0,2.7-0.5,3.7-1.4s1.4-2.2,1.4-3.7s-0.5-2.8-1.4-3.8S96.5,8.9,95,8.9
			s-2.7,0.5-3.6,1.5S90,12.6,90,14.2c0,1.5,0.5,2.7,1.4,3.6C92.4,18.7,93.6,19.2,95,19.2 M86.1,14.1c0-2.6,0.8-4.8,2.5-6.5
			s3.8-2.5,6.4-2.5s4.8,0.8,6.5,2.5s2.5,3.8,2.5,6.5s-0.8,4.8-2.4,6.4c-1.6,1.6-3.8,2.4-6.6,2.4c-2.7,0-4.9-0.8-6.5-2.4
			S86.1,16.8,86.1,14.1"/>
	</g>
</g>
</svg>
